<?xml version="1.0" encoding="UTF-8"?>
<svg width="21px" height="24px" viewBox="0 0 21 24" version="1.1" xmlns="http://www.w3.org/2000/svg" xmlns:xlink="http://www.w3.org/1999/xlink">
    <title>BE6E984A-B182-49DB-9978-F9187A126EC7</title>
    <g id="Page-1" stroke="none" stroke-width="1" fill="none" fill-rule="evenodd">
        <g id="Hafo.am-|-Homepage" transform="translate(-1522.000000, -38.000000)" fill="#000000" fill-rule="nonzero">
            <g id="icon_shopping-bag" transform="translate(1522.000000, 38.000000)">
                <path d="M16.5,6 C16.5,2.69160938 13.8083906,0 10.5,0 C7.1915625,0 4.5,2.69160938 4.5,6 L0,6 L0,20.25 C0,22.3210781 1.67892188,24 3.75,24 L17.25,24 C19.3210781,24 21,22.3210781 21,20.25 L21,6 L16.5,6 Z M10.5,1.5 C12.9813281,1.5 15,3.51867187 15,6 L6,6 C6,3.51867187 8.01867187,1.5 10.5,1.5 Z M19.5,20.25 C19.5,21.4906406 18.4906406,22.5 17.25,22.5 L3.75,22.5 C2.50935937,22.5 1.5,21.4906406 1.5,20.25 L1.5,7.5 L4.5,7.5 L4.5,9.75 C4.5,10.1642344 4.8358125,10.5 5.25,10.5 C5.6641875,10.5 6,10.1642344 6,9.75 L6,7.5 L15,7.5 L15,9.75 C15,10.1642344 15.3357656,10.5 15.75,10.5 C16.1642344,10.5 16.5,10.1642344 16.5,9.75 L16.5,7.5 L19.5,7.5 L19.5,20.25 Z" id="Shape"></path>
            </g>
        </g>
    </g>
</svg>