<?xml version="1.0" encoding="UTF-8"?>
<svg width="45px" height="45px" viewBox="0 0 45 45" version="1.1" xmlns="http://www.w3.org/2000/svg" xmlns:xlink="http://www.w3.org/1999/xlink">
    <title>82F5332E-B40C-4C2A-8B5A-F17B6B7C9292</title>
    <g id="Page-1" stroke="none" stroke-width="1" fill="none" fill-rule="evenodd">
        <g id="Hafo.am-|-Homepage" transform="translate(-1675.000000, -1350.000000)">
            <g id="chevron-down-copy" transform="translate(1697.500000, 1372.500000) scale(-1, 1) rotate(90.000000) translate(-1697.500000, -1372.500000) translate(1675.000000, 1350.000000)">
                <rect id="Rectangle" fill-opacity="0" fill="#FFFFFF" x="0" y="0" width="45" height="45"></rect>
                <path d="M33.5728496,17.4108493 L33.2147762,17.0527759 C32.9777417,16.8157414 32.5944519,16.8157414 32.3574174,17.0527759 L22.5028344,26.9124022 L12.6432081,17.0527759 C12.4061736,16.8157414 12.0228837,16.8157414 11.7858493,17.0527759 L11.4277759,17.4108493 C11.1907414,17.6478837 11.1907414,18.0311736 11.4277759,18.2682081 L22.0691117,28.9145871 C22.3061462,29.1516216 22.689436,29.1516216 22.9264705,28.9145871 L33.5678063,18.2682081 C33.8098841,18.0311736 33.8098841,17.6478837 33.5728496,17.4108493 Z" id="Path" fill="#000000" fill-rule="nonzero"></path>
            </g>
        </g>
    </g>
</svg>